<svg xmlns="http://www.w3.org/2000/svg" aria-hidden="true"
  style="position: absolute; width: 0; height: 0; overflow: hidden;">
  <defs>
    <symbol id="logo-icon" viewBox="0 0 46 36">
      <path
        d="M36.5 0H9.5C4.5275 0 0.5 4.0275 0.5 9V27C0.5 31.9725 4.5275 36 9.5 36H36.5C41.4725 36 45.5 31.9725 45.5 27V9C45.5 4.0275 41.4725 0 36.5 0ZM32.315 21.9825C31.775 22.4325 31.0325 22.6125 30.335 22.4325L5.3375 16.3125C6.0125 14.67 7.61 13.5 9.5 13.5H36.5C38.0075 13.5 39.335 14.265 40.1675 15.39L32.315 21.9825ZM41 10.2375C39.6725 9.4725 38.1425 9 36.5 9H9.5C7.8575 9 6.3275 9.4725 5 10.2375V9C5 6.525 7.025 4.5 9.5 4.5H36.5C38.975 4.5 41 6.525 41 9V10.2375Z"
        fill="#081222" />
    </symbol>
    </symbol>
    <symbol id="logo-modal-text-icon" viewBox="0 0 62 32">
      <path fill="#508f8c" style="fill: var(--color1, #508f8c)"
        d="M35.574 7.66h-9.191c-0.643 0-1.187 0.398-1.417 0.958l8.51 2.083c0.238 0.061 0.49 0 0.674-0.153l2.673-2.237c-0.283-0.391-0.735-0.651-1.248-0.651zM35.574 4.596h-9.191c-0.845 0.003-1.529 0.687-1.532 1.532v0.422c0.452-0.26 0.973-0.421 1.532-0.421h9.191c0.559 0 1.080 0.161 1.532 0.421v-0.421c0-0.843-0.689-1.532-1.532-1.532z">
      </path>
      <path fill="#081222" style="fill: var(--color2, #081222)"
        d="M35.574 3.064h-9.191c-1.693 0-3.064 1.371-3.064 3.064v6.128c0 1.693 1.371 3.064 3.064 3.064h9.191c1.693 0 3.064-1.371 3.064-3.064v-6.128c0-1.693-1.371-3.064-3.064-3.064zM34.15 10.547c-0.184 0.153-0.436 0.214-0.674 0.153l-8.51-2.083c0.23-0.559 0.773-0.958 1.417-0.958h9.191c0.513 0 0.965 0.26 1.248 0.643l-2.673 2.244zM37.106 6.549c-0.452-0.26-0.973-0.421-1.532-0.421h-9.191c-0.559 0-1.080 0.161-1.532 0.421v-0.421c0-0.843 0.689-1.532 1.532-1.532h9.191c0.843 0 1.532 0.689 1.532 1.532v0.421zM14.319 29.008c-0.524 0-0.994-0.085-1.409-0.255s-0.749-0.422-1.001-0.756c-0.245-0.334-0.374-0.735-0.388-1.205h1.859c0.027 0.266 0.119 0.47 0.276 0.613 0.157 0.136 0.361 0.204 0.613 0.204 0.259 0 0.463-0.058 0.613-0.174 0.15-0.123 0.225-0.289 0.225-0.5 0-0.177-0.061-0.323-0.184-0.439-0.116-0.116-0.262-0.211-0.439-0.286-0.17-0.075-0.415-0.16-0.735-0.255-0.463-0.143-0.841-0.286-1.134-0.429s-0.545-0.354-0.756-0.633c-0.211-0.279-0.317-0.643-0.317-1.093 0-0.667 0.242-1.188 0.725-1.563 0.483-0.381 1.113-0.572 1.889-0.572 0.79 0 1.426 0.191 1.91 0.572 0.483 0.374 0.742 0.899 0.776 1.573h-1.889c-0.014-0.232-0.099-0.412-0.255-0.541-0.157-0.136-0.357-0.204-0.603-0.204-0.211 0-0.381 0.058-0.511 0.174-0.129 0.109-0.194 0.269-0.194 0.48 0 0.232 0.109 0.412 0.327 0.541s0.558 0.269 1.021 0.419c0.463 0.157 0.837 0.306 1.123 0.449 0.293 0.143 0.545 0.351 0.756 0.623s0.317 0.623 0.317 1.052c0 0.409-0.106 0.78-0.317 1.113-0.204 0.334-0.504 0.599-0.899 0.797s-0.861 0.296-1.399 0.296zM19.755 24.044c0.17-0.266 0.405-0.48 0.705-0.643s0.65-0.245 1.052-0.245c0.47 0 0.895 0.119 1.277 0.357s0.681 0.579 0.899 1.021c0.225 0.443 0.337 0.957 0.337 1.542s-0.112 1.103-0.337 1.552c-0.218 0.443-0.517 0.786-0.899 1.032-0.381 0.238-0.807 0.357-1.277 0.357-0.395 0-0.746-0.082-1.052-0.245-0.3-0.163-0.534-0.374-0.705-0.633v3.513h-1.746v-8.415h1.746v0.807zM22.246 26.077c0-0.436-0.123-0.776-0.368-1.021-0.238-0.252-0.534-0.378-0.889-0.378-0.347 0-0.643 0.126-0.889 0.378-0.238 0.252-0.357 0.596-0.357 1.032s0.119 0.78 0.357 1.032c0.245 0.252 0.541 0.378 0.889 0.378s0.643-0.126 0.889-0.378c0.245-0.259 0.368-0.606 0.368-1.042zM30.311 25.995c0 0.163-0.010 0.334-0.031 0.511h-3.952c0.027 0.354 0.14 0.626 0.337 0.817 0.204 0.184 0.453 0.276 0.746 0.276 0.436 0 0.739-0.184 0.909-0.552h1.859c-0.095 0.374-0.269 0.712-0.521 1.011-0.245 0.3-0.555 0.534-0.929 0.705s-0.793 0.255-1.256 0.255c-0.558 0-1.055-0.119-1.491-0.357s-0.776-0.579-1.021-1.021c-0.245-0.443-0.368-0.96-0.368-1.552s0.119-1.11 0.357-1.552c0.245-0.443 0.586-0.783 1.021-1.021s0.936-0.357 1.501-0.357c0.552 0 1.042 0.116 1.471 0.347s0.763 0.562 1.001 0.991c0.245 0.429 0.368 0.929 0.368 1.501zM28.524 25.535c0-0.3-0.102-0.538-0.306-0.715s-0.46-0.266-0.766-0.266c-0.293 0-0.541 0.085-0.746 0.255-0.197 0.17-0.32 0.412-0.368 0.725h2.186zM34.705 23.176c0.667 0 1.198 0.218 1.593 0.654 0.402 0.429 0.603 1.021 0.603 1.777v3.329h-1.736v-3.094c0-0.381-0.099-0.677-0.296-0.889s-0.463-0.317-0.797-0.317c-0.334 0-0.599 0.106-0.797 0.317s-0.296 0.507-0.296 0.889v3.094h-1.746v-5.699h1.746v0.756c0.177-0.252 0.415-0.449 0.715-0.592 0.3-0.15 0.637-0.225 1.011-0.225zM37.767 26.077c0-0.586 0.109-1.1 0.327-1.542 0.225-0.443 0.528-0.783 0.909-1.021s0.807-0.357 1.277-0.357c0.374 0 0.715 0.078 1.021 0.235 0.313 0.157 0.558 0.368 0.735 0.633v-2.645h1.746v7.557h-1.746v-0.817c-0.163 0.272-0.398 0.49-0.705 0.654-0.3 0.163-0.65 0.245-1.052 0.245-0.47 0-0.895-0.119-1.277-0.357-0.381-0.245-0.684-0.589-0.909-1.032-0.218-0.449-0.327-0.967-0.327-1.552zM42.036 26.087c0-0.436-0.123-0.78-0.368-1.032-0.238-0.252-0.531-0.378-0.878-0.378s-0.643 0.126-0.889 0.378c-0.238 0.245-0.357 0.586-0.357 1.021s0.119 0.783 0.357 1.042c0.245 0.252 0.541 0.378 0.889 0.378s0.64-0.126 0.878-0.378c0.245-0.252 0.368-0.596 0.368-1.032zM50.867 23.237l-3.574 8.405h-1.879l1.307-2.9-2.318-5.505h1.951l1.317 3.564 1.307-3.564h1.889z">
      </path>
    </symbol>
    <symbol id="+button-icon" viewBox="0 0 64 64" fill="none" xmlns="http://www.w3.org/2000/svg">
      <circle cx="32" cy="32" r="32" fill="#508F8C" />
      <path d="M32 17.4546V46.5455" stroke="black" stroke-width="2.90909" />
      <path d="M17.4546 32L46.5455 32" stroke="black" stroke-width="2.90909" />
    </symbol>
    <symbol id="lock-icon" viewBox="0 0 32 32">
      <path
        d="M24 10.667h-1.333v-2.667c0-3.68-2.987-6.667-6.667-6.667s-6.667 2.987-6.667 6.667v2.667h-1.333c-1.467 0-2.667 1.2-2.667 2.667v13.333c0 1.467 1.2 2.667 2.667 2.667h16c1.467 0 2.667-1.2 2.667-2.667v-13.333c0-1.467-1.2-2.667-2.667-2.667zM16 22.667c-1.467 0-2.667-1.2-2.667-2.667s1.2-2.667 2.667-2.667 2.667 1.2 2.667 2.667-1.2 2.667-2.667 2.667zM20.133 10.667h-8.267v-2.667c0-2.28 1.853-4.133 4.133-4.133s4.133 1.853 4.133 4.133v2.667z">
      </path>
    </symbol>
    <symbol id="email-icon" viewBox="0 0 32 32">
      <path
        d="M26.667 5.333h-21.333c-1.467 0-2.653 1.2-2.653 2.667l-0.013 16c0 1.467 1.2 2.667 2.667 2.667h21.333c1.467 0 2.667-1.2 2.667-2.667v-16c0-1.467-1.2-2.667-2.667-2.667zM26.667 10.667l-10.667 6.667-10.667-6.667v-2.667l10.667 6.667 10.667-6.667v2.667z">
      </path>
    </symbol>
    <symbol id="user-icon" viewBox="0 0 32 32">
      <path
        d="M16 20c-4.227 0-7.987 2.040-10.379 5.208-0.515 0.681-0.773 1.023-0.764 1.483 0.007 0.356 0.229 0.805 0.509 1.025 0.363 0.284 0.865 0.284 1.869 0.284h17.528c1.004 0 1.507 0 1.868-0.284 0.28-0.22 0.504-0.669 0.511-1.025 0.008-0.46-0.249-0.8-0.764-1.483-2.393-3.167-6.152-5.208-10.379-5.208zM16 16c3.314 0 6-2.686 6-6s-2.686-6-6-6v0c-3.314 0-6 2.686-6 6s2.686 6 6 6v0z">
      </path>
    </symbol>
    <symbol id="date-range-icon" viewBox="0 0 32 32">
      <path
        d="M12 14.667h-2.667v2.667h2.667v-2.667zM17.333 14.667h-2.667v2.667h2.667v-2.667zM22.667 14.667h-2.667v2.667h2.667v-2.667zM25.333 5.333h-1.333v-2.667h-2.667v2.667h-10.667v-2.667h-2.667v2.667h-1.333c-1.48 0-2.653 1.2-2.653 2.667l-0.013 18.667c0 1.473 1.194 2.667 2.667 2.667v0h18.667c1.467 0 2.667-1.2 2.667-2.667v-18.667c0-1.467-1.2-2.667-2.667-2.667zM25.333 26.667h-18.667v-14.667h18.667v14.667z">
      </path>
    </symbol>
    <symbol id="arrow-down-icon" viewBox="0 0 32 32">
      <path stroke-linejoin="miter" stroke-linecap="butt" stroke-miterlimit="4" stroke-width="1.3333"
        d="M24.469 10.196l-8.469 8.471-8.471-8.471"></path>
    </symbol>
    <symbol id="arrow-up-icon" viewBox="0 0 32 32">
      <path stroke-linejoin="miter" stroke-linecap="butt" stroke-miterlimit="4" stroke-width="1.3333"
        d="M7.528 18.667l8.472-8.471 8.469 8.471"></path>
    </symbol>
    <symbol id="home-icon" viewBox="0 0 32 32">
      <path
        d="M25.455 2.182c2.41 0 4.364 1.954 4.364 4.364v0 18.909c0 2.41-1.954 4.364-4.364 4.364v0h-18.909c-2.41 0-4.364-1.954-4.364-4.364v0-18.909c0-2.41 1.954-4.364 4.364-4.364v0h18.909zM5.818 15.729h2.982v7.948h4.97v-5.961h3.975v5.961h4.969v-7.948h2.982l-9.939-8.941-9.94 8.941z">
      </path>
    </symbol>
    <symbol id="statistics-icon" viewBox="0 0 32 32">
      <path
        d="M6.667 4h18.667c1.473 0 2.667 1.194 2.667 2.667v18.667c0 1.473-1.194 2.667-2.667 2.667h-18.667c-1.473 0-2.667-1.194-2.667-2.667v-18.667c0-1.473 1.194-2.667 2.667-2.667zM23.636 14.223c0.933 0 1.697-0.8 1.697-1.779 0-0.977-0.764-1.777-1.697-1.777s-1.697 0.8-1.697 1.777c0 0.16 0.017 0.312 0.060 0.453l-3.012 3.165c-0.125-0.040-0.27-0.063-0.419-0.063-0.007 0-0.014 0-0.022 0h0.001c-0.155 0-0.307 0.017-0.443 0.063l-2.163-2.267c0.041-0.143 0.059-0.303 0.059-0.463 0-0.977-0.764-1.777-1.697-1.777s-1.696 0.8-1.696 1.777c0 0.16 0.016 0.32 0.059 0.463l-3.869 4.044c-0.123-0.040-0.265-0.063-0.412-0.063-0.007 0-0.014 0-0.021 0h0.001c-0.933 0-1.697 0.8-1.697 1.779 0 0.977 0.764 1.777 1.697 1.777s1.696-0.8 1.696-1.777c0-0.16-0.016-0.312-0.059-0.453l3.86-4.053c0.136 0.044 0.289 0.061 0.441 0.061 0.153 0 0.307-0.017 0.441-0.061l2.164 2.267c-0.038 0.132-0.060 0.283-0.060 0.44 0 0.008 0 0.015 0 0.022v-0.001c0 0.979 0.764 1.779 1.697 1.779s1.697-0.8 1.697-1.779c0-0.16-0.017-0.32-0.060-0.461l3.021-3.156c0.136 0.044 0.28 0.063 0.432 0.063z">
      </path>
    </symbol>
    <symbol id="edit-icon" viewBox="0 0 32 32">
      <path stroke-linejoin="round" stroke-linecap="round" stroke-miterlimit="4" stroke-width="2.1333"
        d="M22.222 13.925l-4.148-4.148M6.149 25.852l3.509-0.391c0.427-0.046 0.644-0.071 0.843-0.135 0.178-0.059 0.347-0.139 0.503-0.242 0.178-0.117 0.329-0.268 0.633-0.574l13.696-13.696c0.507-0.526 0.819-1.243 0.819-2.033 0-1.62-1.313-2.933-2.933-2.933-0.79 0-1.507 0.312-2.034 0.82l0.001-0.001-13.696 13.696c-0.304 0.304-0.457 0.457-0.572 0.633-0.097 0.145-0.179 0.311-0.238 0.488l-0.004 0.015c-0.066 0.201-0.089 0.414-0.137 0.844l-0.391 3.509z">
      </path>
    </symbol>
    <symbol id="exit-icon" viewBox="0 0 32 32">
      <path
        d="M19.15 21.627h1.945v3.886c0 1.607-1.308 2.916-2.916 2.916h-11.708c-1.607 0-2.916-1.308-2.916-2.916v-19.045c0-1.607 1.308-2.916 2.916-2.916h11.708c1.607 0 2.916 1.308 2.916 2.916v3.888h-1.945v-3.888c-0.001-0.536-0.435-0.97-0.971-0.971h-11.709c0 0 0 0 0 0-0.536 0-0.971 0.434-0.972 0.971v19.045c0 0.537 0.436 0.972 0.972 0.972h11.708c0.536-0.001 0.971-0.436 0.971-0.972 0 0 0 0 0 0v0-3.886zM23.863 11.41l-1.374 1.374 2.236 2.235h-12.569v1.943h12.569l-2.236 2.238 1.374 1.374 4.581-4.583-4.581-4.581z">
      </path>
    </symbol>
    <symbol id="cancel-x-icon" viewBox="0 0 31 32">
      <path stroke-linejoin="miter" stroke-linecap="butt" stroke-miterlimit="4" stroke-width="3.2"
        d="M2.56 3.2l25.6 25.6M2.56 28.8l25.6-25.6"></path>
    </symbol>
    <symbol id="currency-mob-icon" viewBox="0 0 32 32">
      <path
        d="M26.947 0c2.791 0 5.053 2.262 5.053 5.053v0 21.895c0 2.791-2.262 5.053-5.053 5.053v0h-21.895c-2.791 0-5.053-2.262-5.053-5.053v0-21.895c0-2.791 2.262-5.053 5.053-5.053v0h21.895zM14.522 9.374c-2.033 0.44-3.667 1.76-3.667 3.783 0 2.42 2.001 3.625 4.924 4.328 2.62 0.628 3.144 1.55 3.144 2.525 0 0.723-0.514 1.875-2.829 1.875-2.158 0-3.006-0.963-3.123-2.2h-2.305c0.126 2.295 1.844 3.583 3.855 4.013v2.273h3.144v-2.253c2.044-0.387 3.667-1.571 3.667-3.72 0-2.976-2.546-3.992-4.925-4.611s-3.144-1.257-3.144-2.253c0-1.143 1.059-1.939 2.829-1.939 1.865 0 2.557 0.891 2.619 2.2h2.316c-0.072-1.802-1.173-3.458-3.363-3.992v-2.295h-3.144v2.264z">
      </path>
    </symbol>
    <symbol id="divider-line" viewBox="0 0 288 2" xmlns="http://www.w3.org/2000/svg">
      <path opacity="0.4" d="M0 1L288 1" stroke="var(--main-white)" stroke-width="1" />
    </symbol>
    <symbol id="+icon" viewBox="0 0 32 32">
      <path stroke-linejoin="miter" stroke-linecap="butt" stroke-miterlimit="4" stroke-width="3.2" d="M16 0v32M0 16h32">
      </path>
    </symbol>
    <symbol id="-icon" viewBox="0 0 320 32">
      <path stroke-linejoin="miter" stroke-linecap="butt" stroke-miterlimit="4" stroke-width="32" d="M0 16h320">
      </path>
    </symbol>
  </defs>
</svg>