<svg xmlns="http://www.w3.org/2000/svg" style="display: none;">
  <symbol id="logo-icon" viewBox="0 0 46 36">
    <path d="M36.5 0H9.5C4.5275 0 0.5 4.0275 0.5 9V27C0.5 31.9725 4.5275 36 9.5 36H36.5C41.4725 36 45.5 31.9725 45.5 27V9C45.5 4.0275 41.4725 0 36.5 0ZM32.315 21.9825C31.775 22.4325 31.0325 22.6125 30.335 22.4325L5.3375 16.3125C6.0125 14.67 7.61 13.5 9.5 13.5H36.5C38.0075 13.5 39.335 14.265 40.1675 15.39L32.315 21.9825ZM41 10.2375C39.6725 9.4725 38.1425 9 36.5 9H9.5C7.8575 9 6.3275 9.4725 5 10.2375V9C5 6.525 7.025 4.5 9.5 4.5H36.5C38.975 4.5 41 6.525 41 9V10.2375Z" fill="#081222"/>
  </symbol>
</svg>