<svg width="14" height="14" fill="none" xmlns="http://www.w3.org/2000/svg"><g filter="url(#a)"><path d="M10.5 5.833 8.167 3.5m-6.708 9.042 1.974-.22c.24-.026.362-.04.474-.076.1-.033.195-.078.283-.136.1-.066.185-.151.356-.323l7.704-7.704A1.65 1.65 0 0 0 9.917 1.75L2.213 9.454c-.171.171-.257.257-.322.356a1.167 1.167 0 0 0-.136.283c-.037.113-.05.233-.077.475l-.22 1.974z" stroke="#FCFCFC" stroke-width="1.2" stroke-linecap="round" stroke-linejoin="round" shape-rendering="crispEdges"/></g><defs><filter id="a" x="-3.142" y=".667" width="20.475" height="20.475" filterUnits="userSpaceOnUse" color-interpolation-filters="sRGB"><feFlood flood-opacity="0" result="BackgroundImageFix"/><feColorMatrix in="SourceAlpha" values="0 0 0 0 0 0 0 0 0 0 0 0 0 0 0 0 0 0 127 0" result="hardAlpha"/><feOffset dy="4"/><feGaussianBlur stdDeviation="2"/><feComposite in2="hardAlpha" operator="out"/><feColorMatrix values="0 0 0 0 0 0 0 0 0 0 0 0 0 0 0 0 0 0 0.25 0"/><feBlend in2="BackgroundImageFix" result="effect1_dropShadow_15901_871"/><feBlend in="SourceGraphic" in2="effect1_dropShadow_15901_871" result="shape"/></filter></defs></svg>