<svg xmlns="http://www.w3.org/2000/svg" fill="none" viewBox="0 0 182 94"><path fill="#508F8C" d="M104.5 22.5h-27c-1.89 0-3.487 1.17-4.162 2.813l24.997 6.12c.698.18 1.44 0 1.98-.45l7.852-6.57c-.832-1.148-2.16-1.913-3.667-1.913Zm0-9h-27A4.513 4.513 0 0 0 73 18v1.238C74.328 18.473 75.858 18 77.5 18h27c1.643 0 3.173.473 4.5 1.238V18c0-2.475-2.025-4.5-4.5-4.5Z"/><path fill="#081222" d="M104.5 9h-27c-4.972 0-9 4.027-9 9v18c0 4.972 4.028 9 9 9h27c4.972 0 9-4.028 9-9V18c0-4.973-4.028-9-9-9Zm-4.185 21.983c-.54.45-1.282.63-1.98.45l-24.997-6.12C74.013 23.67 75.61 22.5 77.5 22.5h27c1.507 0 2.835.765 3.667 1.89l-7.852 6.593ZM109 19.238c-1.327-.765-2.857-1.238-4.5-1.238h-27c-1.642 0-3.172.473-4.5 1.238V18c0-2.475 2.025-4.5 4.5-4.5h27c2.475 0 4.5 2.025 4.5 4.5v1.238ZM42.062 85.21c-1.54 0-2.92-.25-4.14-.75-1.22-.5-2.2-1.24-2.94-2.22-.72-.98-1.1-2.16-1.14-3.54h5.46c.08.78.35 1.38.81 1.8.46.4 1.06.6 1.8.6.76 0 1.36-.17 1.8-.51.44-.36.66-.85.66-1.47 0-.52-.18-.95-.54-1.29-.34-.34-.77-.62-1.29-.84-.5-.22-1.22-.47-2.16-.75-1.36-.42-2.47-.84-3.33-1.26-.86-.42-1.6-1.04-2.22-1.86-.62-.82-.93-1.89-.93-3.21 0-1.96.71-3.49 2.13-4.59 1.42-1.12 3.27-1.68 5.55-1.68 2.32 0 4.19.56 5.61 1.68 1.42 1.1 2.18 2.64 2.28 4.62h-5.55c-.04-.68-.29-1.21-.75-1.59-.46-.4-1.05-.6-1.77-.6-.62 0-1.12.17-1.5.51-.38.32-.57.79-.57 1.41 0 .68.32 1.21.96 1.59.64.38 1.64.79 3 1.23 1.36.46 2.46.9 3.3 1.32.86.42 1.6 1.03 2.22 1.83.62.8.93 1.83.93 3.09 0 1.2-.31 2.29-.93 3.27-.6.98-1.48 1.76-2.64 2.34-1.16.58-2.53.87-4.11.87Zm15.967-14.58c.5-.78 1.19-1.41 2.07-1.89.88-.48 1.91-.72 3.09-.72 1.38 0 2.63.35 3.75 1.05 1.12.7 2 1.7 2.64 3 .66 1.3.99 2.81.99 4.53 0 1.72-.33 3.24-.99 4.56-.64 1.3-1.52 2.31-2.64 3.03-1.12.7-2.37 1.05-3.75 1.05-1.16 0-2.19-.24-3.09-.72-.88-.48-1.57-1.1-2.07-1.86v10.32H52.9V68.26h5.13v2.37Zm7.32 5.97c0-1.28-.36-2.28-1.08-3-.7-.74-1.57-1.11-2.61-1.11-1.02 0-1.89.37-2.61 1.11-.7.74-1.05 1.75-1.05 3.03 0 1.28.35 2.29 1.05 3.03.72.74 1.59 1.11 2.61 1.11 1.02 0 1.89-.37 2.61-1.11.72-.76 1.08-1.78 1.08-3.06Zm23.691-.24c0 .48-.03.98-.09 1.5H77.34c.08 1.04.41 1.84.99 2.4.6.54 1.33.81 2.19.81 1.28 0 2.17-.54 2.67-1.62h5.46c-.28 1.1-.79 2.09-1.53 2.97-.72.88-1.63 1.57-2.73 2.07-1.1.5-2.33.75-3.69.75-1.64 0-3.1-.35-4.38-1.05-1.28-.7-2.28-1.7-3-3-.72-1.3-1.08-2.82-1.08-4.56 0-1.74.35-3.26 1.05-4.56.72-1.3 1.72-2.3 3-3 1.28-.7 2.75-1.05 4.41-1.05 1.62 0 3.06.34 4.32 1.02 1.26.68 2.24 1.65 2.94 2.91.72 1.26 1.08 2.73 1.08 4.41Zm-5.25-1.35c0-.88-.3-1.58-.9-2.1-.6-.52-1.35-.78-2.25-.78-.86 0-1.59.25-2.19.75-.58.5-.94 1.21-1.08 2.13h6.42Zm18.157-6.93c1.96 0 3.52.64 4.68 1.92 1.18 1.26 1.77 3 1.77 5.22V85h-5.1v-9.09c0-1.12-.29-1.99-.87-2.61-.58-.62-1.36-.93-2.34-.93-.98 0-1.76.31-2.34.93-.58.62-.87 1.49-.87 2.61V85h-5.13V68.26h5.13v2.22c.52-.74 1.22-1.32 2.1-1.74.88-.44 1.87-.66 2.97-.66Zm8.995 8.52c0-1.72.32-3.23.96-4.53.66-1.3 1.55-2.3 2.67-3 1.12-.7 2.37-1.05 3.75-1.05 1.1 0 2.1.23 3 .69.92.46 1.64 1.08 2.16 1.86V62.8h5.13V85h-5.13v-2.4c-.48.8-1.17 1.44-2.07 1.92-.88.48-1.91.72-3.09.72-1.38 0-2.63-.35-3.75-1.05-1.12-.72-2.01-1.73-2.67-3.03-.64-1.32-.96-2.84-.96-4.56Zm12.54.03c0-1.28-.36-2.29-1.08-3.03-.7-.74-1.56-1.11-2.58-1.11s-1.89.37-2.61 1.11c-.7.72-1.05 1.72-1.05 3s.35 2.3 1.05 3.06c.72.74 1.59 1.11 2.61 1.11 1.02 0 1.88-.37 2.58-1.11.72-.74 1.08-1.75 1.08-3.03Zm25.941-8.37-10.5 24.69h-5.52l3.84-8.52-6.81-16.17h5.73l3.87 10.47 3.84-10.47h5.55Z"/></svg>